<svg width="33" height="33" viewBox="0 0 33 33" fill="none" xmlns="http://www.w3.org/2000/svg">
<path d="M30.6456 0.666504H3.20985C1.9527 0.666504 0.931274 1.70222 0.931274 2.97365V30.3594C0.931274 31.6308 1.9527 32.6665 3.20985 32.6665H30.6456C31.9027 32.6665 32.9313 31.6308 32.9313 30.3594V2.97365C32.9313 1.70222 31.9027 0.666504 30.6456 0.666504ZM10.6027 28.0951H5.85985V12.8236H10.6098V28.0951H10.6027ZM8.23127 10.7379C6.70985 10.7379 5.48127 9.50222 5.48127 7.98793C5.48127 6.47365 6.70985 5.23793 8.23127 5.23793C9.74556 5.23793 10.9813 6.47365 10.9813 7.98793C10.9813 9.50936 9.7527 10.7379 8.23127 10.7379ZM28.3813 28.0951H23.6384V20.6665C23.6384 18.8951 23.6027 16.6165 21.1741 16.6165C18.7027 16.6165 18.3241 18.5451 18.3241 20.5379V28.0951H13.5813V12.8236H18.1313V14.9094H18.1956C18.8313 13.7094 20.3813 12.4451 22.6884 12.4451C27.4884 12.4451 28.3813 15.6094 28.3813 19.7236V28.0951Z" fill="#CECECE"/>
</svg>
